<svg width="43" height="127" viewBox="0 0 43 127" fill="none" xmlns="http://www.w3.org/2000/svg">
<line opacity="0.7" x1="22.6579" y1="42.0625" x2="22.6579" y2="84.0479" stroke="#6C5FBC" stroke-width="1.96807" stroke-dasharray="2.62 2.62"/>
<circle opacity="0.3" cx="21.6744" cy="21.0699" r="20.9927" fill="#6C5FBC"/>
<path d="M18.2023 18.9624C18.2023 16.914 19.8629 15.2533 21.9113 15.2533C23.9598 15.2533 25.6204 16.914 25.6204 18.9624C25.6204 21.0109 23.9598 22.6715 21.9113 22.6715C19.8629 22.6715 18.2023 21.0109 18.2023 18.9624Z" fill="#6C5FBC"/>
<path fill-rule="evenodd" clip-rule="evenodd" d="M12.5228 17.6812C12.915 12.9234 16.8909 9.26172 21.6649 9.26172H22.1579C26.9318 9.26172 30.9078 12.9234 31.2999 17.6812C31.5111 20.2429 30.7198 22.7866 29.0928 24.7764L23.6226 31.4662C22.7382 32.5479 21.0846 32.5479 20.2001 31.4662L14.73 24.7764C13.1029 22.7866 12.3117 20.2429 12.5228 17.6812ZM21.9113 13.5414C18.9174 13.5414 16.4904 15.9685 16.4904 18.9624C16.4904 21.9564 18.9174 24.3834 21.9113 24.3834C24.9053 24.3834 27.3323 21.9564 27.3323 18.9624C27.3323 15.9685 24.9053 13.5414 21.9113 13.5414Z" fill="#6C5FBC"/>
<circle opacity="0.3" cx="21.6744" cy="105.041" r="20.9927" fill="#6C5FBC"/>
<path fill-rule="evenodd" clip-rule="evenodd" d="M11.1777 105.696C11.1777 99.537 16.1708 94.5439 22.3301 94.5439C28.4894 94.5439 33.4825 99.537 33.4825 105.696C33.4825 111.856 28.4894 116.849 22.3301 116.849C16.1708 116.849 11.1777 111.856 11.1777 105.696ZM23.3142 99.1361C23.3142 98.5926 22.8736 98.1521 22.3301 98.1521C21.7867 98.1521 21.3461 98.5926 21.3461 99.1361V105.696C21.3461 106.036 21.5209 106.351 21.8086 106.531L25.7447 108.991C26.2056 109.279 26.8127 109.139 27.1007 108.678C27.3887 108.217 27.2486 107.61 26.7878 107.322L23.3142 105.151V99.1361Z" fill="#6C5FBC"/>
</svg>
